<?xml version="1.0" encoding="UTF-8" standalone="no" ?>
<!DOCTYPE svg PUBLIC "-//W3C//DTD SVG 1.1//EN" "http://www.w3.org/Graphics/SVG/1.1/DTD/svg11.dtd">
<svg xmlns="http://www.w3.org/2000/svg" xmlns:xlink="http://www.w3.org/1999/xlink" version="1.1" width="2100" height="500" viewBox="0 0 2100 500" xml:space="preserve">
<desc>Created with Fabric.js 5.2.4</desc>
<defs>
</defs>
<rect x="0" y="0" width="100%" height="100%" fill="transparent"></rect>
<g transform="matrix(1 0 0 1 1050 250)" id="85af03ab-5f16-4eae-af57-1a05bea1cfc9"  >
<rect style="stroke: none; stroke-width: 1; stroke-dasharray: none; stroke-linecap: butt; stroke-dashoffset: 0; stroke-linejoin: miter; stroke-miterlimit: 4; fill: rgb(255,255,255); fill-rule: nonzero; opacity: 1; visibility: hidden;" vector-effect="non-scaling-stroke"  x="-1050" y="-250" rx="0" ry="0" width="2100" height="500" />
</g>
<g transform="matrix(Infinity NaN NaN Infinity 0 0)" id="0bf4d52d-37cc-407f-8f6c-2082430168e9"  >
</g>
<g transform="matrix(1.95 0 0 1.95 1083.31 355.65)"  >
<g style="" vector-effect="non-scaling-stroke"   >
		<g transform="matrix(1 0 0 1 0 0)"  >
<rect style="stroke: none; stroke-width: 1; stroke-dasharray: none; stroke-linecap: butt; stroke-dashoffset: 0; stroke-linejoin: miter; stroke-miterlimit: 4; fill: rgb(255,255,255); fill-rule: nonzero; opacity: 1; visibility: hidden;" vector-effect="non-scaling-stroke"  x="-540" y="-540" rx="0" ry="0" width="1080" height="1080" />
</g>
		<g transform="matrix(0.56 0 0 0.56 105.73 -49.46)"  >
<path style="stroke: none; stroke-width: 1; stroke-dasharray: none; stroke-linecap: butt; stroke-dashoffset: 0; stroke-linejoin: miter; stroke-miterlimit: 4; fill: rgb(255,255,255); fill-rule: evenodd; opacity: 0.97;" vector-effect="non-scaling-stroke"  transform=" translate(-1160.68, -192.4)" d="M 1152.5 66.5 C 1190.21 63.7487 1211.04 81.082 1215 118.5 C 1215.5 124.491 1215.67 130.491 1215.5 136.5 C 1203.5 136.5 1191.5 136.5 1179.5 136.5 C 1180.13 127.653 1179.29 118.986 1177 110.5 C 1173.73 104.698 1168.73 102.032 1162 102.5 C 1152.87 102.29 1147.21 106.623 1145 115.5 C 1142.34 130.872 1145.68 144.872 1155 157.5 C 1169 172.167 1183 186.833 1197 201.5 C 1215.35 226.256 1220.35 253.589 1212 283.5 C 1201.52 309.927 1182.02 321.427 1153.5 318 C 1124.36 313.859 1108.53 297.026 1106 267.5 C 1105.5 258.506 1105.33 249.506 1105.5 240.5 C 1117.17 240.5 1128.83 240.5 1140.5 240.5 C 1140.09 250.944 1140.93 261.277 1143 271.5 C 1146.37 278.685 1152.03 282.352 1160 282.5 C 1167.76 282.407 1173.1 278.74 1176 271.5 C 1179.67 257.855 1178 244.855 1171 232.5 C 1160.74 218.905 1149.07 206.572 1136 195.5 C 1107.59 167.172 1099.59 133.838 1112 95.5 C 1120.08 78.2508 1133.58 68.5842 1152.5 66.5 Z" stroke-linecap="round" />
</g>
		<g transform="matrix(0.56 0 0 0.56 430.71 -49.51)"  >
<path style="stroke: none; stroke-width: 1; stroke-dasharray: none; stroke-linecap: butt; stroke-dashoffset: 0; stroke-linejoin: miter; stroke-miterlimit: 4; fill: rgb(255,255,255); fill-rule: evenodd; opacity: 0.97;" vector-effect="non-scaling-stroke"  transform=" translate(-1741, -192.33)" d="M 1731.5 66.5 C 1772.79 63.2927 1794.62 82.2927 1797 123.5 C 1797.67 169.167 1797.67 214.833 1797 260.5 C 1795.86 296.968 1777.2 316.302 1741 318.5 C 1706.65 316.819 1687.99 298.819 1685 264.5 C 1684.33 216.5 1684.33 168.5 1685 120.5 C 1686.85 90.328 1702.35 72.328 1731.5 66.5 Z M 1735.5 102.5 C 1748.61 100.294 1756.45 105.627 1759 118.5 C 1759.67 167.5 1759.67 216.5 1759 265.5 C 1757.84 276.324 1751.84 281.991 1741 282.5 C 1730.62 282.12 1724.62 276.786 1723 266.5 C 1722.33 216.833 1722.33 167.167 1723 117.5 C 1724.51 110.166 1728.68 105.166 1735.5 102.5 Z" stroke-linecap="round" />
</g>
		<g transform="matrix(0.56 0 0 0.56 -464.59 -48.4)"  >
<path style="stroke: none; stroke-width: 1; stroke-dasharray: none; stroke-linecap: butt; stroke-dashoffset: 0; stroke-linejoin: miter; stroke-miterlimit: 4; fill: rgb(255,255,255); fill-rule: evenodd; opacity: 0.99;" vector-effect="non-scaling-stroke"  transform=" translate(-142.22, -194.31)" d="M 128.5 69.5 C 154.705 67.7202 180.371 70.5535 205.5 78 C 228.071 85.3556 245.904 98.8556 259 118.5 C 266.63 131.817 270.13 146.15 269.5 161.5 C 244.824 161.833 220.158 161.5 195.5 160.5 C 191.804 141.977 180.471 131.477 161.5 129 C 114.375 124.789 92.0416 146.455 94.5 194 C 91.5293 242.031 113.863 264.031 161.5 260 C 179.844 257.642 191.178 247.642 195.5 230 C 177.17 229.5 158.836 229.333 140.5 229.5 C 140.175 212.923 140.508 196.423 141.5 180 C 184.165 179.5 226.832 179.333 269.5 179.5 C 269.5 224.833 269.5 270.167 269.5 315.5 C 256.163 315.667 242.829 315.5 229.5 315 C 226.858 307.405 224.025 299.905 221 292.5 C 195.734 311.825 167.067 320.825 135 319.5 C 108.334 320.436 83.5004 314.27 60.5 301 C 38.3277 285.105 24.4944 263.605 19 236.5 C 13.8542 211.208 13.5209 185.874 18 160.5 C 26.1821 118.317 50.6821 90.4838 91.5 77 C 103.795 73.6223 116.128 71.1223 128.5 69.5 Z" stroke-linecap="round" />
</g>
		<g transform="matrix(0.56 0 0 0.56 173.95 -49.41)"  >
<path style="stroke: none; stroke-width: 1; stroke-dasharray: none; stroke-linecap: butt; stroke-dashoffset: 0; stroke-linejoin: miter; stroke-miterlimit: 4; fill: rgb(255,255,255); fill-rule: evenodd; opacity: 0.97;" vector-effect="non-scaling-stroke"  transform=" translate(-1282.5, -192.5)" d="M 1225.5 69.5 C 1263.5 69.5 1301.5 69.5 1339.5 69.5 C 1339.5 81.5 1339.5 93.5 1339.5 105.5 C 1326.83 105.5 1314.17 105.5 1301.5 105.5 C 1301.5 175.5 1301.5 245.5 1301.5 315.5 C 1288.83 315.5 1276.17 315.5 1263.5 315.5 C 1263.5 245.5 1263.5 175.5 1263.5 105.5 C 1250.83 105.5 1238.17 105.5 1225.5 105.5 C 1225.5 93.5 1225.5 81.5 1225.5 69.5 Z" stroke-linecap="round" />
</g>
		<g transform="matrix(0.56 0 0 0.56 244.49 -48.57)"  >
<path style="stroke: none; stroke-width: 1; stroke-dasharray: none; stroke-linecap: butt; stroke-dashoffset: 0; stroke-linejoin: miter; stroke-miterlimit: 4; fill: rgb(255,255,255); fill-rule: evenodd; opacity: 0.99;" vector-effect="non-scaling-stroke"  transform=" translate(-1408.44, -194)" d="M 1353.5 69.5 C 1365.83 69.5 1378.17 69.5 1390.5 69.5 C 1390.33 133.501 1390.5 197.501 1391 261.5 C 1392.21 278.383 1401.05 284.883 1417.5 281 C 1422.7 278.447 1425.87 274.28 1427 268.5 C 1427.33 265.833 1427.67 263.167 1428 260.5 C 1428.5 196.834 1428.67 133.168 1428.5 69.5 C 1440.17 69.5 1451.83 69.5 1463.5 69.5 C 1463.67 135.834 1463.5 202.168 1463 268.5 C 1459.61 301.391 1441.45 318.058 1408.5 318.5 C 1378.99 318.516 1361.16 304.183 1355 275.5 C 1353.52 206.865 1353.02 138.198 1353.5 69.5 Z" stroke-linecap="round" />
</g>
		<g transform="matrix(0.56 0 0 0.56 320.66 -49.42)"  >
<path style="stroke: none; stroke-width: 1; stroke-dasharray: none; stroke-linecap: butt; stroke-dashoffset: 0; stroke-linejoin: miter; stroke-miterlimit: 4; fill: rgb(255,255,255); fill-rule: evenodd; opacity: 0.98;" vector-effect="non-scaling-stroke"  transform=" translate(-1544.47, -192.48)" d="M 1487.5 69.5 C 1511.17 69.3334 1534.84 69.5 1558.5 70 C 1584.89 74.7293 1599.06 90.5626 1601 117.5 C 1601.67 167.167 1601.67 216.833 1601 266.5 C 1598.46 294.698 1583.3 310.865 1555.5 315 C 1532.93 315.827 1510.43 315.66 1488 314.5 C 1487.5 232.834 1487.33 151.167 1487.5 69.5 Z M 1525.5 105.5 C 1534.51 105.334 1543.51 105.5 1552.5 106 C 1560.88 110.592 1564.72 117.758 1564 127.5 C 1564.67 170.833 1564.67 214.167 1564 257.5 C 1564.3 265.153 1561.8 271.653 1556.5 277 C 1554.91 277.862 1553.25 278.529 1551.5 279 C 1542.84 279.5 1534.17 279.666 1525.5 279.5 C 1525.5 221.5 1525.5 163.5 1525.5 105.5 Z" stroke-linecap="round" />
</g>
		<g transform="matrix(0.56 0 0 0.56 375.83 -49.41)"  >
<path style="stroke: none; stroke-width: 1; stroke-dasharray: none; stroke-linecap: butt; stroke-dashoffset: 0; stroke-linejoin: miter; stroke-miterlimit: 4; fill: rgb(255,255,255); fill-rule: evenodd; opacity: 0.99;" vector-effect="non-scaling-stroke"  transform=" translate(-1643, -192.5)" d="M 1624.5 69.5 C 1636.83 69.5 1649.17 69.5 1661.5 69.5 C 1661.5 151.5 1661.5 233.5 1661.5 315.5 C 1649.17 315.5 1636.83 315.5 1624.5 315.5 C 1624.5 233.5 1624.5 151.5 1624.5 69.5 Z" stroke-linecap="round" />
</g>
		<g transform="matrix(0.56 0 0 0.56 -316.33 -48.33)"  >
<path style="stroke: none; stroke-width: 1; stroke-dasharray: none; stroke-linecap: butt; stroke-dashoffset: 0; stroke-linejoin: miter; stroke-miterlimit: 4; fill: rgb(255,255,255); fill-rule: evenodd; opacity: 0.99;" vector-effect="non-scaling-stroke"  transform=" translate(-407, -194.44)" d="M 361.5 73.5 C 392.074 73.1711 422.574 73.5045 453 74.5 C 482.068 154.538 511.235 234.538 540.5 314.5 C 512.833 315.833 485.167 315.833 457.5 314.5 C 454.369 303.772 451.035 293.106 447.5 282.5 C 419.508 281.5 391.508 281.167 363.5 281.5 C 360.467 292.765 357.134 303.932 353.5 315 C 326.833 315.667 300.167 315.667 273.5 315 C 303.131 234.608 332.464 154.108 361.5 73.5 Z M 405.5 141.5 C 414.591 169.514 422.924 197.847 430.5 226.5 C 413.833 226.5 397.167 226.5 380.5 226.5 C 388.631 198.108 396.964 169.775 405.5 141.5 Z" stroke-linecap="round" />
</g>
		<g transform="matrix(0.56 0 0 0.56 -172.13 -48.28)"  >
<path style="stroke: none; stroke-width: 1; stroke-dasharray: none; stroke-linecap: butt; stroke-dashoffset: 0; stroke-linejoin: miter; stroke-miterlimit: 4; fill: rgb(255,255,255); fill-rule: evenodd; opacity: 0.98;" vector-effect="non-scaling-stroke"  transform=" translate(-664.5, -194.5)" d="M 547.5 73.5 C 604.168 73.3333 660.834 73.5 717.5 74 C 742.947 76.8142 761.113 89.6475 772 112.5 C 776.874 128.601 776.541 144.601 771 160.5 C 763.435 175.393 751.601 185.226 735.5 190 C 766.625 198.057 781.958 218.224 781.5 250.5 C 779.882 283.293 763.215 304.126 731.5 313 C 727.531 313.853 723.531 314.519 719.5 315 C 662.168 315.5 604.834 315.667 547.5 315.5 C 547.5 234.833 547.5 154.167 547.5 73.5 Z M 626.5 127.5 C 645.503 127.333 664.503 127.5 683.5 128 C 694.417 133.001 698.583 141.501 696 153.5 C 694.167 160.667 689.667 165.167 682.5 167 C 663.836 167.5 645.17 167.667 626.5 167.5 C 626.5 154.167 626.5 140.833 626.5 127.5 Z M 626.5 218.5 C 647.503 218.333 668.503 218.5 689.5 219 C 697.907 222.614 702.24 229.114 702.5 238.5 C 702.346 248.329 697.679 254.829 688.5 258 C 667.836 258.5 647.169 258.667 626.5 258.5 C 626.5 245.167 626.5 231.833 626.5 218.5 Z" stroke-linecap="round" />
</g>
		<g transform="matrix(0.56 0 0 0.56 -34.37 -48.33)"  >
<path style="stroke: none; stroke-width: 1; stroke-dasharray: none; stroke-linecap: butt; stroke-dashoffset: 0; stroke-linejoin: miter; stroke-miterlimit: 4; fill: rgb(255,255,255); fill-rule: evenodd; opacity: 0.98;" vector-effect="non-scaling-stroke"  transform=" translate(-910.5, -194.44)" d="M 776.5 73.5 C 806.507 73.1668 836.507 73.5002 866.5 74.5 C 881.581 100.997 896.914 127.331 912.5 153.5 C 928.026 126.953 943.693 100.453 959.5 74 C 987.833 73.3333 1016.17 73.3333 1044.5 74 C 1013.21 122.749 982.042 171.582 951 220.5 C 950.5 252.165 950.333 283.832 950.5 315.5 C 924.167 315.5 897.833 315.5 871.5 315.5 C 871.667 283.832 871.5 252.165 871 220.5 C 838.98 171.783 807.48 122.783 776.5 73.5 Z" stroke-linecap="round" />
</g>
		<g transform="matrix(0.5 0 0 0.5 486.28 -152.86)"  >
<circle style="stroke: rgb(34,34,34); stroke-width: 0; stroke-dasharray: none; stroke-linecap: butt; stroke-dashoffset: 0; stroke-linejoin: miter; stroke-miterlimit: 4; fill: rgb(255,255,255); fill-rule: nonzero; opacity: 1;" vector-effect="non-scaling-stroke"  cx="0" cy="0" r="35" />
</g>
</g>
</g>
</svg>